# xmcd
#
# Track frame offsets: 
#        150
#        16900
#        31837
#        47947
#        66974
#        84893
#        104934
#        120483
#        139435
#        157745
#        175835
#        190895
#
# Disc length: 2726 seconds
#
# Revision: 0
# Processed by: cddbd v1.5.1PL0 Copyright (c) Steve Scherf et al.
# Submitted via: ExactAudioCopy v0.95a5
#
DISCID=9d0aa40c
DTITLE=Queen Esther - Talkin' FishBowl Blues
DYEAR=2004
DGENRE=Country
TTITLE0=Promise Me
TTITLE1=Shine
TTITLE2=Talkin' Fishbowl Blues
TTITLE3=Taster's Choice
TTITLE4=Love
TTITLE5=So Real
TTITLE6=New York City
TTITLE7=Leame Me Alone
TTITLE8=Get It Right This Time
TTITLE9=The Way Of The World
TTITLE10=Help Me
TTITLE11=Stand By Your Man
EXTD=
EXTT0=
EXTT1=
EXTT2=
EXTT3=
EXTT4=
EXTT5=
EXTT6=
EXTT7=
EXTT8=
EXTT9=
EXTT10=
EXTT11=
PLAYORDER=
